<svg width="70" height="79" viewBox="0 0 70 79" fill="none" xmlns="http://www.w3.org/2000/svg">
<path d="M4.43035 1.14158C1.89702 2.87491 1.36369 6.34158 3.36369 9.27491C5.23035 11.9416 6.56369 12.0749 24.9637 12.0749C42.297 12.0749 45.097 12.3416 48.9637 14.7416C58.4303 20.4749 59.7637 34.2082 51.6303 42.2082C47.6304 46.2082 46.1637 46.7416 36.697 47.6749C25.2304 48.8749 21.7637 51.1416 24.697 55.6749C25.897 57.5416 28.4304 58.2082 36.297 58.4749C44.8304 58.7416 47.3637 58.3416 52.8303 55.5416C66.297 48.7416 72.8303 32.4749 67.3637 19.5416C64.297 12.2082 56.4303 4.47491 49.6303 2.20824C43.097 -0.0584218 7.36369 -0.858422 4.43035 1.14158Z" fill="#DC1929"/>
<path d="M15.2304 25.9416C2.43035 31.5416 -1.83631 44.2082 0.697021 69.2749C1.49702 76.4749 2.03035 77.5416 4.83035 78.2082C6.96369 78.7416 8.83035 78.3416 10.297 76.8749C12.1637 75.0082 12.5637 72.2082 12.297 59.9416C11.897 44.6082 13.3637 38.6082 17.897 36.8749C19.097 36.4749 24.297 36.0749 29.3637 36.0749C34.5637 36.0749 39.897 35.4082 41.3637 34.7416C44.1637 33.1416 44.697 28.0749 42.297 25.6749C40.1637 23.5416 20.297 23.6749 15.2304 25.9416Z" fill="#DC1929"/>
</svg>
