<svg width="592" height="84" viewBox="0 0 592 84" fill="none" xmlns="http://www.w3.org/2000/svg">
<path d="M4.43035 4.14158C1.89702 5.87491 1.36369 9.34158 3.36369 12.2749C5.23035 14.9416 6.56369 15.0749 24.9637 15.0749C42.297 15.0749 45.097 15.3416 48.9637 17.7416C58.4303 23.4749 59.7637 37.2082 51.6303 45.2082C47.6304 49.2082 46.1637 49.7416 36.697 50.6749C25.2304 51.8749 21.7637 54.1416 24.697 58.6749C25.897 60.5416 28.4304 61.2082 36.297 61.4749C44.8304 61.7416 47.3637 61.3416 52.8303 58.5416C66.297 51.7416 72.8303 35.4749 67.3637 22.5416C64.297 15.2082 56.4303 7.47491 49.6303 5.20824C43.097 2.94158 7.36369 2.14158 4.43035 4.14158Z" fill="#DC1929"/>
<path d="M15.2304 28.9416C2.43035 34.5416 -1.83631 47.2082 0.697021 72.2749C1.49702 79.4749 2.03035 80.5416 4.83035 81.2082C6.96369 81.7416 8.83035 81.3416 10.297 79.8749C12.1637 78.0082 12.5637 75.2082 12.297 62.9416C11.897 47.6082 13.3637 41.6082 17.897 39.8749C19.097 39.4749 24.297 39.0749 29.3637 39.0749C34.5637 39.0749 39.897 38.4082 41.3637 37.7416C44.1637 36.1416 44.697 31.0749 42.297 28.6749C40.1637 26.5416 20.297 26.6749 15.2304 28.9416Z" fill="#DC1929"/>
<path d="M142.155 28.095C142.155 33.025 140.455 37.1333 137.055 40.42C133.712 43.65 128.583 45.265 121.67 45.265H110.28V70H102.545V10.755H121.67C128.357 10.755 133.428 12.37 136.885 15.6C140.398 18.83 142.155 22.995 142.155 28.095ZM121.67 38.89C125.977 38.89 129.15 37.955 131.19 36.085C133.23 34.215 134.25 31.5517 134.25 28.095C134.25 20.785 130.057 17.13 121.67 17.13H110.28V38.89H121.67ZM159.334 10.755V48.24C159.334 53.51 160.609 57.42 163.159 59.97C165.765 62.52 169.364 63.795 173.954 63.795C178.487 63.795 182.029 62.52 184.579 59.97C187.185 57.42 188.489 53.51 188.489 48.24V10.755H196.224V48.155C196.224 53.085 195.232 57.25 193.249 60.65C191.265 63.9933 188.574 66.4867 185.174 68.13C181.83 69.7733 178.062 70.595 173.869 70.595C169.675 70.595 165.879 69.7733 162.479 68.13C159.135 66.4867 156.472 63.9933 154.489 60.65C152.562 57.25 151.599 53.085 151.599 48.155V10.755H159.334ZM245.592 10.755V17.045H229.442V70H221.707V17.045H205.472V10.755H245.592ZM286.308 70L272.198 45.775H262.848V70H255.113V10.755H274.238C278.715 10.755 282.483 11.52 285.543 13.05C288.66 14.58 290.983 16.6483 292.513 19.255C294.043 21.8617 294.808 24.8367 294.808 28.18C294.808 32.26 293.618 35.8583 291.238 38.975C288.915 42.0917 285.402 44.16 280.698 45.18L295.573 70H286.308ZM262.848 39.57H274.238C278.432 39.57 281.577 38.55 283.673 36.51C285.77 34.4133 286.818 31.6367 286.818 28.18C286.818 24.6667 285.77 21.9467 283.673 20.02C281.633 18.0933 278.488 17.13 274.238 17.13H262.848V39.57ZM341.847 56.825H316.007L311.247 70H303.087L324.507 11.095H333.432L354.767 70H346.607L341.847 56.825ZM339.637 50.535L328.927 20.615L318.217 50.535H339.637ZM405.209 10.755C411.669 10.755 417.25 11.9733 421.954 14.41C426.714 16.79 430.34 20.2183 432.834 24.695C435.384 29.1717 436.659 34.4417 436.659 40.505C436.659 46.5683 435.384 51.8383 432.834 56.315C430.34 60.735 426.714 64.135 421.954 66.515C417.25 68.8383 411.669 70 405.209 70H386.764V10.755H405.209ZM405.209 63.625C412.859 63.625 418.695 61.6133 422.719 57.59C426.742 53.51 428.754 47.815 428.754 40.505C428.754 33.1383 426.714 27.3867 422.634 23.25C418.61 19.1133 412.802 17.045 405.209 17.045H394.499V63.625H405.209ZM454.596 17.045V36.85H476.186V43.225H454.596V63.625H478.736V70H446.861V10.67H478.736V17.045H454.596ZM509.226 70.595C505.316 70.595 501.802 69.915 498.686 68.555C495.626 67.1383 493.217 65.2117 491.461 62.775C489.704 60.2817 488.797 57.42 488.741 54.19H496.986C497.269 56.9667 498.402 59.3183 500.386 61.245C502.426 63.115 505.372 64.05 509.226 64.05C512.909 64.05 515.799 63.1433 517.896 61.33C520.049 59.46 521.126 57.08 521.126 54.19C521.126 51.9233 520.502 50.0817 519.256 48.665C518.009 47.2483 516.451 46.1717 514.581 45.435C512.711 44.6983 510.189 43.905 507.016 43.055C503.106 42.035 499.961 41.015 497.581 39.995C495.257 38.975 493.246 37.3883 491.546 35.235C489.902 33.025 489.081 30.0783 489.081 26.395C489.081 23.165 489.902 20.3033 491.546 17.81C493.189 15.3167 495.484 13.39 498.431 12.03C501.434 10.67 504.862 9.99 508.716 9.99C514.269 9.99 518.802 11.3783 522.316 14.155C525.886 16.9317 527.897 20.615 528.351 25.205H519.851C519.567 22.9383 518.377 20.955 516.281 19.255C514.184 17.4983 511.407 16.62 507.951 16.62C504.721 16.62 502.086 17.47 500.046 19.17C498.006 20.8133 496.986 23.1367 496.986 26.14C496.986 28.2933 497.581 30.05 498.771 31.41C500.017 32.77 501.519 33.8183 503.276 34.555C505.089 35.235 507.611 36.0283 510.841 36.935C514.751 38.0117 517.896 39.0883 520.276 40.165C522.656 41.185 524.696 42.8 526.396 45.01C528.096 47.1633 528.946 50.11 528.946 53.85C528.946 56.74 528.181 59.46 526.651 62.01C525.121 64.56 522.854 66.6283 519.851 68.215C516.847 69.8017 513.306 70.595 509.226 70.595ZM575.348 56.825H549.508L544.748 70H536.588L558.008 11.095H566.933L588.268 70H580.108L575.348 56.825ZM573.138 50.535L562.428 20.615L551.718 50.535H573.138Z" fill="black"/>
</svg>
